<?xml version="1.0" encoding="UTF-8" standalone="no"?>
<!DOCTYPE svg PUBLIC "-//W3C//DTD SVG 1.1//EN" "http://www.w3.org/Graphics/SVG/1.1/DTD/svg11.dtd">
<svg width="100%" height="100%" viewBox="0 0 512 512" version="1.1" xmlns="http://www.w3.org/2000/svg" xmlns:xlink="http://www.w3.org/1999/xlink" xml:space="preserve" xmlns:serif="http://www.serif.com/" style="fill-rule:evenodd;clip-rule:evenodd;stroke-linejoin:round;stroke-miterlimit:2;">
    <rect x="-37.5" y="-37.5" width="587" height="587" style="fill:url(#_Linear1);"/>
    <g transform="matrix(1,0,0,1,-38.5657,276.656)">
        <g transform="matrix(400,0,0,400,95.0813,123.344)">
            <path d="M0.279,0.01C0.23,0.01 0.187,0.002 0.148,-0.015C0.109,-0.031 0.075,-0.054 0.045,-0.083L0.123,-0.176C0.145,-0.154 0.169,-0.137 0.195,-0.125C0.22,-0.113 0.248,-0.107 0.28,-0.107C0.32,-0.107 0.352,-0.117 0.374,-0.138C0.397,-0.159 0.408,-0.187 0.408,-0.223C0.408,-0.253 0.399,-0.278 0.38,-0.296C0.362,-0.315 0.336,-0.324 0.302,-0.324C0.28,-0.324 0.26,-0.319 0.243,-0.309C0.226,-0.299 0.213,-0.284 0.203,-0.266L0.093,-0.266L0.098,-0.589C0.098,-0.622 0.11,-0.648 0.133,-0.669C0.155,-0.69 0.183,-0.7 0.215,-0.7L0.518,-0.7L0.518,-0.577L0.245,-0.577C0.24,-0.577 0.235,-0.575 0.231,-0.572C0.227,-0.568 0.225,-0.564 0.225,-0.558L0.219,-0.332L0.165,-0.332C0.177,-0.365 0.196,-0.392 0.223,-0.412C0.25,-0.432 0.286,-0.442 0.331,-0.442C0.374,-0.442 0.411,-0.433 0.444,-0.415C0.476,-0.398 0.501,-0.373 0.519,-0.341C0.537,-0.309 0.546,-0.272 0.546,-0.229C0.546,-0.179 0.534,-0.136 0.511,-0.1C0.488,-0.064 0.456,-0.037 0.416,-0.018C0.376,0.001 0.33,0.01 0.279,0.01Z" style="fill:white;fill-rule:nonzero;"/>
        </g>
        <g transform="matrix(400,0,0,400,335.081,123.344)">
            <path d="M0.106,-0L0.106,-0.58C0.106,-0.627 0.12,-0.664 0.15,-0.69C0.179,-0.717 0.219,-0.73 0.268,-0.73L0.352,-0.73L0.352,-0.62L0.267,-0.62C0.259,-0.62 0.252,-0.617 0.247,-0.612C0.241,-0.606 0.238,-0.599 0.238,-0.592L0.238,-0L0.106,-0ZM0.024,-0.378L0.024,-0.49L0.352,-0.49L0.352,-0.378L0.024,-0.378Z" style="fill:white;fill-rule:nonzero;"/>
        </g>
    </g>
    <defs>
        <linearGradient id="_Linear1" x1="0" y1="0" x2="1" y2="0" gradientUnits="userSpaceOnUse" gradientTransform="matrix(587,0,-0,587,-37.5,256)"><stop offset="0" style="stop-color:rgb(5,102,141);stop-opacity:1"/><stop offset="1" style="stop-color:rgb(23,183,247);stop-opacity:1"/></linearGradient>
    </defs>
</svg>
