<?xml version="1.0" standalone="no"?>
<!DOCTYPE svg PUBLIC "-//W3C//DTD SVG 20010904//EN"
 "http://www.w3.org/TR/2001/REC-SVG-20010904/DTD/svg10.dtd">
<svg version="1.0" xmlns="http://www.w3.org/2000/svg"
 width="700.000000pt" height="700.000000pt" viewBox="0 0 700.000000 700.000000"
 preserveAspectRatio="xMidYMid meet">
<metadata>
Created by potrace 1.14, written by Peter Selinger 2001-2017
</metadata>
<g transform="translate(0.000000,700.000000) scale(0.100000,-0.100000)"
fill="#000000" stroke="none">
<path d="M0 3500 l0 -3500 3500 0 3500 0 0 3500 0 3500 -3500 0 -3500 0 0
-3500z m5980 1725 l0 -305 -251 0 c-237 0 -253 -1 -289 -21 -21 -12 -47 -38
-59 -59 -20 -36 -21 -51 -21 -334 l0 -296 310 0 310 0 0 -305 0 -305 -310 0
-310 0 0 -1035 0 -1035 -365 0 -365 0 0 1035 0 1035 -225 0 -225 0 0 305 0
305 224 0 224 0 4 328 c6 371 12 415 89 571 70 142 225 279 390 344 151 60
263 73 627 76 l242 1 0 -305z m-2370 -200 l0 -335 -767 -2 c-725 -3 -769 -4
-795 -21 -15 -10 -31 -33 -37 -50 -5 -18 -12 -171 -15 -342 -4 -170 -9 -352
-13 -404 l-6 -95 34 23 c232 152 586 192 926 106 105 -27 269 -101 360 -163
309 -210 481 -592 460 -1027 -17 -352 -140 -634 -376 -858 -206 -196 -473
-316 -808 -363 -149 -20 -491 -15 -626 10 -317 60 -635 216 -870 428 l-59 53
197 235 c108 129 205 243 214 253 18 18 20 17 82 -38 237 -212 492 -315 781
-315 208 0 362 42 479 130 154 115 229 277 229 493 0 180 -44 297 -153 406
-105 105 -230 150 -418 151 -222 0 -408 -95 -514 -262 l-30 -48 -303 0 -304 0
7 293 c3 160 10 575 16 922 7 493 13 644 25 694 51 221 250 402 495 450 24 5
437 9 917 10 l872 1 0 -335z"/>
</g>
</svg>
